<?xml version="1.0" standalone="yes"?>
<svg xmlns="http://www.w3.org/2000/svg" width="920" height="501">
<path style="fill:#ffffff; stroke:none;" d="M0 0L0 15L15 15L15 30L0 30L0 45L15 45L15 60L0 60L0 75L15 75L15 90L0 90L0 105L15 105L15 120L0 120L0 135L15 135L15 150L0 150L0 165L15 165L15 180L0 180L0 195L15 195L15 210L0 210L0 225L15 225L15 240L0 240L0 255L15 255L15 270L0 270L0 285L15 285L15 300L0 300L0 315L15 315L15 330L0 330L0 345L15 345L15 360L0 360L0 375L15 375L15 390L0 390L0 405L15 405L15 420L0 420L0 435L15 435L15 450L0 450L0 465L15 465L15 480L0 480L0 495L15 495L15 501L30 501L30 495L45 495L45 501L60 501L60 495L75 495L75 501L90 501L90 495L105 495L105 501L120 501L120 495L135 495L135 501L150 501L150 495L165 495L165 501L180 501L180 495L195 495L195 501L210 501L210 495L225 495L225 501L240 501L240 495L255 495L255 501L270 501L270 495L285 495L285 501L300 501L300 495L315 495L315 501L330 501L330 495L345 495L345 501L360 501L360 495L375 495L375 501L390 501L390 495L405 495L405 501L420 501L420 495L435 495L435 501L450 501L450 495L465 495L465 501L480 501L480 495L495 495L495 501L510 501L510 495L525 495L525 501L540 501L540 495L555 495L555 501L570 501L570 495L585 495L585 501L600 501L600 495L615 495L615 501L630 501L630 495L645 495L645 501L660 501L660 495L675 495L675 501L690 501L690 495L705 495L705 501L720 501L720 495L735 495L735 501L750 501L750 495L765 495L765 501L780 501L780 495L795 495L795 501L810 501L810 495L825 495L825 501L840 501L840 495L855 495L855 501L870 501L870 495L885 495L885 501L900 501L900 495L915 495L915 501L920 501L920 495L915 495L915 480L920 480L920 465L915 465L915 450L920 450L920 435L915 435L915 420L920 420L920 405L915 405L915 390L920 390L920 375L915 375L915 360L920 360L920 345L915 345L915 330L920 330L920 315L915 315L915 300L920 300L920 285L915 285L915 270L920 270L920 255L915 255L915 240L920 240L920 225L915 225L915 210L920 210L920 195L915 195L915 180L920 180L920 165L915 165L915 150L920 150L920 135L915 135L915 120L920 120L920 105L915 105L915 90L920 90L920 75L915 75L915 60L920 60L920 45L915 45L915 30L920 30L920 15L915 15L915 0L900 0L900 15L885 15L885 0L870 0L870 15L855 15L855 0L840 0L840 15L825 15L825 0L810 0L810 15L795 15L795 0L780 0L780 15L765 15L765 0L750 0L750 15L735 15L735 0L720 0L720 15L705 15L705 0L690 0L690 15L675 15L675 0L660 0L660 15L645 15L645 0L630 0L630 15L615 15L615 0L600 0L600 15L585 15L585 0L570 0L570 15L555 15L555 0L540 0L540 15L525 15L525 0L510 0L510 15L495 15L495 0L480 0L480 15L465 15L465 0L450 0L450 15L435 15L435 0L420 0L420 15L405 15L405 0L390 0L390 15L375 15L375 0L360 0L360 15L345 15L345 0L330 0L330 15L315 15L315 0L300 0L300 15L285 15L285 0L270 0L270 15L255 15L255 0L240 0L240 15L225 15L225 0L210 0L210 15L195 15L195 0L180 0L180 15L165 15L165 0L150 0L150 15L135 15L135 0L120 0L120 15L105 15L105 0L90 0L90 15L75 15L75 0L60 0L60 15L45 15L45 0L30 0L30 15L15 15L15 0L0 0z"/>
<path style="fill:#e7e7e7; stroke:none;" d="M15 0L15 15L30 15L30 0L15 0M45 0L45 15L60 15L60 0L45 0M75 0L75 15L90 15L90 0L75 0M105 0L105 15L120 15L120 0L105 0M135 0L135 15L150 15L150 0L135 0M165 0L165 15L180 15L180 0L165 0M195 0L195 15L210 15L210 0L195 0M225 0L225 15L240 15L240 0L225 0M255 0L255 15L270 15L270 0L255 0M285 0L285 15L300 15L300 0L285 0M315 0L315 15L330 15L330 0L315 0M345 0L345 15L360 15L360 0L345 0M375 0L375 15L390 15L390 0L375 0M405 0L405 15L420 15L420 0L405 0M435 0L435 15L450 15L450 0L435 0M465 0L465 15L480 15L480 0L465 0M495 0L495 15L510 15L510 0L495 0M525 0L525 15L540 15L540 0L525 0M555 0L555 15L570 15L570 0L555 0M585 0L585 15L600 15L600 0L585 0M615 0L615 15L630 15L630 0L615 0M645 0L645 15L660 15L660 0L645 0M675 0L675 15L690 15L690 0L675 0M705 0L705 15L720 15L720 0L705 0M735 0L735 15L750 15L750 0L735 0M765 0L765 15L780 15L780 0L765 0M795 0L795 15L810 15L810 0L795 0M825 0L825 15L840 15L840 0L825 0M855 0L855 15L870 15L870 0L855 0M885 0L885 15L900 15L900 0L885 0M915 0L915 15L920 15L920 0L915 0M0 15L0 30L15 30L15 15L0 15M30 15L30 30L15 30L15 45L30 45L30 60L15 60L15 75L30 75L30 90L15 90L15 105L30 105L30 120L15 120L15 135L30 135L30 150L15 150L15 165L30 165L30 180L15 180L15 195L30 195L30 210L15 210L15 225L30 225L30 240L15 240L15 255L30 255L30 270L15 270L15 285L30 285L30 300L15 300L15 315L30 315L30 330L15 330L15 345L30 345L30 360L15 360L15 375L30 375L30 390L15 390L15 405L30 405L30 420L15 420L15 435L30 435L30 450L15 450L15 465L30 465L30 480L15 480L15 495L30 495L30 480L45 480L45 495L60 495L60 480L75 480L75 495L90 495L90 480L105 480L105 495L120 495L120 480L135 480L135 495L150 495L150 480L165 480L165 495L180 495L180 480L195 480L195 495L210 495L210 480L225 480L225 495L240 495L240 480L255 480L255 495L270 495L270 480L285 480L285 495L300 495L300 480L315 480L315 495L330 495L330 480L345 480L345 495L360 495L360 480L375 480L375 495L390 495L390 480L405 480L405 495L420 495L420 480L435 480L435 495L450 495L450 480L465 480L465 495L480 495L480 480L495 480L495 495L510 495L510 480L525 480L525 495L540 495L540 480L555 480L555 495L570 495L570 480L585 480L585 495L600 495L600 480L615 480L615 495L630 495L630 480L645 480L645 495L660 495L660 480L675 480L675 495L690 495L690 480L705 480L705 495L720 495L720 480L735 480L735 495L750 495L750 480L765 480L765 495L780 495L780 480L795 480L795 495L810 495L810 480L825 480L825 495L840 495L840 480L855 480L855 495L870 495L870 480L885 480L885 495L900 495L900 480L915 480L915 465L900 465L900 450L915 450L915 435L900 435L900 420L915 420L915 405L900 405L900 390L915 390L915 375L900 375L900 360L915 360L915 345L900 345L900 330L915 330L915 315L900 315L900 300L915 300L915 285L900 285L900 270L915 270L915 255L900 255L900 240L915 240L915 225L900 225L900 210L915 210L915 195L900 195L900 180L915 180L915 165L900 165L900 150L915 150L915 135L900 135L900 120L915 120L915 105L900 105L900 90L915 90L915 75L900 75L900 60L915 60L915 45L900 45L900 30L915 30L915 15L900 15L900 30L885 30L885 15L870 15L870 30L855 30L855 15L840 15L840 30L825 30L825 15L810 15L810 30L795 30L795 15L780 15L780 30L765 30L765 15L750 15L750 30L735 30L735 15L720 15L720 30L705 30L705 15L690 15L690 30L675 30L675 15L660 15L660 30L645 30L645 15L630 15L630 30L615 30L615 15L600 15L600 30L585 30L585 15L570 15L570 30L555 30L555 15L540 15L540 30L525 30L525 15L510 15L510 30L495 30L495 15L480 15L480 30L465 30L465 15L450 15L450 30L435 30L435 15L420 15L420 30L405 30L405 15L390 15L390 30L375 30L375 15L360 15L360 30L345 30L345 15L330 15L330 30L315 30L315 15L300 15L300 30L285 30L285 15L270 15L270 30L255 30L255 15L240 15L240 30L225 30L225 15L210 15L210 30L195 30L195 15L180 15L180 30L165 30L165 15L150 15L150 30L135 30L135 15L120 15L120 30L105 30L105 15L90 15L90 30L75 30L75 15L60 15L60 30L45 30L45 15L30 15z"/>
<path style="fill:#ffffff; stroke:none;" d="M30 30L30 45L45 45L45 60L30 60L30 75L45 75L45 90L30 90L30 105L45 105L45 120L30 120L30 135L45 135L45 150L30 150L30 165L45 165L45 180L30 180L30 195L45 195L45 210L30 210L30 225L45 225L45 240L30 240L30 255L45 255L45 270L30 270L30 285L45 285L45 300L30 300L30 315L45 315L45 330L30 330L30 345L45 345L45 360L30 360L30 375L45 375L45 390L30 390L30 405L45 405L45 420L30 420L30 435L45 435L45 450L30 450L30 465L45 465L45 480L60 480L60 465L75 465L75 480L90 480L90 465L105 465L105 480L120 480L120 465L135 465L135 480L150 480L150 465L165 465L165 480L180 480L180 465L195 465L195 480L210 480L210 465L225 465L225 480L240 480L240 465L255 465L255 480L270 480L270 465L285 465L285 480L300 480L300 465L315 465L315 480L330 480L330 465L345 465L345 480L360 480L360 465L375 465L375 480L390 480L390 465L405 465L405 480L420 480C420 475.087 418.436 467.959 423 465L423 464L405 465L405 460L390 456L390 465L375 465L375 450L360 450C359.956 437.625 338.012 427.235 328 421L330 435L315 435L315 420L327 420L327 419L315 410L315 420L300 420L300 405L310 405L301 393L300 393L300 405L285 405L285 390L297 390C292.197 380.59 281.13 360.132 270 360L270 345L255 345L255 330L263 330C261.476 325.406 259.965 316.451 255 315L254 300L240 300L240 285L251 285L249 270L240 270L240 255L248 255L248 240L240 240L240 225L249 225L251 210L240 210L240 195C253.534 195 255 193.534 255 180L259 180L264 165L255 165L255 150L270 150L270 135C279.437 134.993 284.473 129.74 285 120C291.425 118.158 296.07 110.741 299 105L285 105L285 90L300 90L300 104L313 90L300 90L300 75L315 75L315 88C322.72 82.6255 344.242 69.5965 345 60C356.395 59.961 360 55.8837 360 45L380 46L380 45L375 45L375 30L360 30L360 45L345 45L345 30L330 30L330 45L315 45L315 30L300 30L300 45L285 45L285 30L270 30L270 45L255 45L255 30L240 30L240 45L225 45L225 30L210 30L210 45L195 45L195 30L180 30L180 45L165 45L165 30L150 30L150 45L135 45L135 30L120 30L120 45L105 45L105 30L90 30L90 45L75 45L75 30L60 30L60 45L45 45L45 30L30 30M390 30L390 42C397.562 39.4459 404.891 39.1637 405 30L390 30M420 30L420 33L435 31L420 30M480 30L480 31L495 34L495 30L480 30M510 30C510.111 39.3535 517.505 39.1127 525 42L525 30L510 30M540 30L540 45L535 45L535 46L555 45C555.001 55.5925 559.078 59.9626 570 60C570.756 69.5685 593.233 83.5499 601 89L600 75L615 75L615 90L602 90L615 104L615 90L630 90L630 105L616 105C619.245 110.695 623.426 118.116 630 120C630.522 129.654 635.667 134.993 645 135L644 149L660 150L660 165L651 164L656 180L660 180C660 193.534 661.466 195 675 195L675 210L664 210L666 225L675 225L675 240L667 240L667 255L675 255L675 270L666 270L664 285L675 285L675 300L661 300L660 315C654.923 316.484 653.235 326.236 652 331L660 330L660 345L646 344L645 360C634.016 360.13 622.761 380.673 618 390L630 390L630 405L615 405L615 394L605 405L615 405L615 420L600 420L600 410L588 419L588 420L600 420L600 435L585 435L585 423C575.142 427.909 555.041 438.43 555 450L540 450L540 465L525 465L525 456L510 460L510 465L492 464L492 465L495 465L495 480L510 480L510 465L525 465L525 480L540 480L540 465L555 465L555 480L570 480L570 465L585 465L585 480L600 480L600 465L615 465L615 480L630 480L630 465L645 465L645 480L660 480L660 465L675 465L675 480L690 480L690 465L705 465L705 480L720 480L720 465L735 465L735 480L750 480L750 465L765 465L765 480L780 480L780 465L795 465L795 480L810 480L810 465L825 465L825 480L840 480L840 465L855 465L855 480L870 480L870 465L885 465L885 450L900 450L900 435L885 435L885 420L900 420L900 405L885 405L885 390L900 390L900 375L885 375L885 360L900 360L900 345L885 345L885 330L900 330L900 315L885 315L885 300L900 300L900 285L885 285L885 270L900 270L900 255L885 255L885 240L900 240L900 225L885 225L885 210L900 210L900 195L885 195L885 180L900 180L900 165L885 165L885 150L900 150L900 135L885 135L885 120L900 120L900 105L885 105L885 90L900 90L900 75L885 75L885 60L900 60L900 45L885 45L885 30L870 30L870 45L855 45L855 30L840 30L840 45L825 45L825 30L810 30L810 45L795 45L795 30L780 30L780 45L765 45L765 30L750 30L750 45L735 45L735 30L720 30L720 45L705 45L705 30L690 30L690 45L675 45L675 30L660 30L660 45L645 45L645 30L630 30L630 45L615 45L615 30L600 30L600 45L585 45L585 30L570 30L570 45L555 45L555 30L540 30z"/>
<path style="fill:#e7e7e7; stroke:none;" d="M915 30L915 45L920 45L920 30L915 30z"/>
<path style="fill:#b1b1b1; stroke:none;" d="M435.715 31.544C403.626 35.9232 371.861 45.8038 345 64.4352C316.995 83.8599 292.804 108.97 276.312 139C225.563 231.406 246.004 352.955 328 420.679C349.851 438.727 375.084 451.102 402 459.502C427.424 467.435 456.658 469.253 483 465.711C513.821 461.568 544.324 450.812 570 433.116C598.755 413.297 622.816 387.723 639.688 357C691.398 262.843 667.193 134.604 579 70.7454C558.879 56.1758 536.901 45.153 513 38.2909C488.709 31.317 460.911 28.1053 435.715 31.544z"/>
<path style="fill:#e7e7e7; stroke:none;" d="M426 32L426 33L430 33L426 32M439 32L440 33L439 32M484 32L485 33L484 32M486 32L486 33L489 33L486 32M430 33L431 34L430 33M492.667 33.3333L493.333 33.6667L492.667 33.3333M404 37L405 38L404 37M510 37L511 38L510 37M400.667 38.3333L401.333 38.6667L400.667 38.3333M513.667 38.3333L514.333 38.6667L513.667 38.3333M396.667 39.3333L397.333 39.6667L396.667 39.3333M517.667 39.3333L518.333 39.6667L517.667 39.3333M394 40L395 41L394 40M520.667 40.3333L521.333 40.6667L520.667 40.3333M391 41L392 42L391 41M523 41L524 42L523 41M0 45L0 60L15 60L15 45L0 45M60 45L60 60L45 60L45 75L60 75L60 90L45 90L45 105L60 105L60 120L45 120L45 135L60 135L60 150L45 150L45 165L60 165L60 180L45 180L45 195L60 195L60 210L45 210L45 225L60 225L60 240L45 240L45 255L60 255L60 270L45 270L45 285L60 285L60 300L45 300L45 315L60 315L60 330L45 330L45 345L60 345L60 360L45 360L45 375L60 375L60 390L45 390L45 405L60 405L60 420L45 420L45 435L60 435L60 450L45 450L45 465L60 465L60 450L75 450L75 465L90 465L90 450L105 450L105 465L120 465L120 450L135 450L135 465L150 465L150 450L165 450L165 465L180 465L180 450L195 450L195 465L210 465L210 450L225 450L225 465L240 465L240 450L255 450L255 465L270 465L270 450L285 450L285 465L300 465L300 450L315 450L315 465L330 465L330 450L345 450L345 465L360 465L360 450L345 450L345 435L330 435L330 450L315 450L315 435L300 435L300 420L285 420L285 405L270 405L270 390L285 390L285 375L270 375L270 360L255 360L255 345L240 345L240 330L255 330L255 315L240 315L240 300L225 300L225 285L240 285L240 270L225 270L225 255L240 255L240 240L225 240L225 225L240 225L240 210L225 210L225 195L240 195L240 180L255 180L255 165L240 165L240 150L255 150L255 135L270 135L270 120L285 120L285 105L270 105L270 90L285 90L285 75L300 75L300 60L315 60L315 75L330 75L330 60L345 60L345 45L330 45L330 60L315 60L315 45L300 45L300 60L285 60L285 45L270 45L270 60L255 60L255 45L240 45L240 60L225 60L225 45L210 45L210 60L195 60L195 45L180 45L180 60L165 60L165 45L150 45L150 60L135 60L135 45L120 45L120 60L105 60L105 45L90 45L90 60L75 60L75 45L60 45M360 45L360 55L377 48C372.767 43.5501 365.691 45 360 45M538 47L538 48L555 55L555 45L538 47M570 45L570 60L585 60L585 75L600 75L600 60L615 60L615 75L630 75L630 90L645 90L645 105L630 105L630 120L645 120L645 135L660 135L660 150L675 150L675 165L660 165L660 180L675 180L675 195L690 195L690 210L675 210L675 225L690 225L690 240L675 240L675 255L690 255L690 270L675 270L675 285L690 285L690 300L675 300L675 315L660 315L660 330L675 330L675 345L660 345L660 360L645 360L645 375L630 375L630 390L645 390L645 405L630 405L630 420L615 420L615 435L600 435L600 450L585 450L585 435L570 435L570 450L555 450L555 465L570 465L570 450L585 450L585 465L600 465L600 450L615 450L615 465L630 465L630 450L645 450L645 465L660 465L660 450L675 450L675 465L690 465L690 450L705 450L705 465L720 465L720 450L735 450L735 465L750 465L750 450L765 450L765 465L780 465L780 450L795 450L795 465L810 465L810 450L825 450L825 465L840 465L840 450L855 450L855 465L870 465L870 450L885 450L885 435L870 435L870 420L885 420L885 405L870 405L870 390L885 390L885 375L870 375L870 360L885 360L885 345L870 345L870 330L885 330L885 315L870 315L870 300L885 300L885 285L870 285L870 270L885 270L885 255L870 255L870 240L885 240L885 225L870 225L870 210L885 210L885 195L870 195L870 180L885 180L885 165L870 165L870 150L885 150L885 135L870 135L870 120L885 120L885 105L870 105L870 90L885 90L885 75L870 75L870 60L885 60L885 45L870 45L870 60L855 60L855 45L840 45L840 60L825 60L825 45L810 45L810 60L795 60L795 45L780 45L780 60L765 60L765 45L750 45L750 60L735 60L735 45L720 45L720 60L705 60L705 45L690 45L690 60L675 60L675 45L660 45L660 60L645 60L645 45L630 45L630 60L615 60L615 45L600 45L600 60L585 60L585 45L570 45M378 46L379 47L378 46M536 46L537 47L536 46M555 55L556 56L555 55M556.667 56.3333L557.333 56.6667L556.667 56.3333M356 57L357 58L356 57M558 57L559 58L558 57M354 58L355 59L354 58M560 58L561 59L560 58z"/>
<path style="fill:#ffffff; stroke:none;" d="M60 60L60 75L75 75L75 90L60 90L60 105L75 105L75 120L60 120L60 135L75 135L75 150L60 150L60 165L75 165L75 180L60 180L60 195L75 195L75 210L60 210L60 225L75 225L75 240L60 240L60 255L75 255L75 270L60 270L60 285L75 285L75 300L60 300L60 315L75 315L75 330L60 330L60 345L75 345L75 360L60 360L60 375L75 375L75 390L60 390L60 405L75 405L75 420L60 420L60 435L75 435L75 450L90 450L90 435L105 435L105 450L120 450L120 435L135 435L135 450L150 450L150 435L165 435L165 450L180 450L180 435L195 435L195 450L210 450L210 435L225 435L225 450L240 450L240 435L255 435L255 450L270 450L270 435L285 435L285 450L300 450L300 435L285 435L285 420L270 420L270 405L255 405L255 390L270 390L270 375L255 375L255 360L240 360L240 345L225 345L225 330L240 330L240 315L225 315L225 300L210 300L210 285L225 285L225 270L210 270L210 255L225 255L225 240L210 240L210 225L225 225L225 210L210 210L210 195L225 195L225 180L240 180L240 165L225 165L225 150L240 150L240 135L255 135L255 120L270 120L270 105L255 105L255 90L270 90L270 75L285 75L285 60L270 60L270 75L255 75L255 60L240 60L240 75L225 75L225 60L210 60L210 75L195 75L195 60L180 60L180 75L165 75L165 60L150 60L150 75L135 75L135 60L120 60L120 75L105 75L105 60L90 60L90 75L75 75L75 60L60 60z"/>
<path style="fill:#e7e7e7; stroke:none;" d="M345 60L345 64L352 61L345 60M564 60L564 61L570 64L570 60L564 60z"/>
<path style="fill:#ffffff; stroke:none;" d="M630 60L630 75L645 75L645 90L660 90L660 105L645 105L645 120L660 120L660 135L675 135L675 150L690 150L690 165L675 165L675 180L690 180L690 195L705 195L705 210L690 210L690 225L705 225L705 240L690 240L690 255L705 255L705 270L690 270L690 285L705 285L705 300L690 300L690 315L675 315L675 330L690 330L690 345L675 345L675 360L660 360L660 375L645 375L645 390L660 390L660 405L645 405L645 420L630 420L630 435L615 435L615 450L630 450L630 435L645 435L645 450L660 450L660 435L675 435L675 450L690 450L690 435L705 435L705 450L720 450L720 435L735 435L735 450L750 450L750 435L765 435L765 450L780 450L780 435L795 435L795 450L810 450L810 435L825 435L825 450L840 450L840 435L855 435L855 450L870 450L870 435L855 435L855 420L870 420L870 405L855 405L855 390L870 390L870 375L855 375L855 360L870 360L870 345L855 345L855 330L870 330L870 315L855 315L855 300L870 300L870 285L855 285L855 270L870 270L870 255L855 255L855 240L870 240L870 225L855 225L855 210L870 210L870 195L855 195L855 180L870 180L870 165L855 165L855 150L870 150L870 135L855 135L855 120L870 120L870 105L855 105L855 90L870 90L870 75L855 75L855 60L840 60L840 75L825 75L825 60L810 60L810 75L795 75L795 60L780 60L780 75L765 75L765 60L750 60L750 75L735 75L735 60L720 60L720 75L705 75L705 60L690 60L690 75L675 75L675 60L660 60L660 75L645 75L645 60L630 60z"/>
<path style="fill:#e7e7e7; stroke:none;" d="M915 60L915 75L920 75L920 60L915 60M343 65L344 66L343 65M571 65L572 66L571 65M342 66L343 67L342 66M572 66L573 67L572 66M340 67L341 68L340 67M574 67L575 68L574 67M339 68L340 69L339 68M575 68L576 69L575 68M577 69L578 70L577 69M336 70L337 71L336 70M578 70L579 71L578 70M335 71L336 72L335 71M332 73L333 74L332 73M582 73L583 74L582 73M331 74L332 75L331 74M583 74L584 75L583 74M0 75L0 90L15 90L15 75L0 75M90 75L90 90L75 90L75 105L90 105L90 120L75 120L75 135L90 135L90 150L75 150L75 165L90 165L90 180L75 180L75 195L90 195L90 210L75 210L75 225L90 225L90 240L75 240L75 255L90 255L90 270L75 270L75 285L90 285L90 300L75 300L75 315L90 315L90 330L75 330L75 345L90 345L90 360L75 360L75 375L90 375L90 390L75 390L75 405L90 405L90 420L75 420L75 435L90 435L90 420L105 420L105 435L120 435L120 420L135 420L135 435L150 435L150 420L165 420L165 435L180 435L180 420L195 420L195 435L210 435L210 420L225 420L225 435L240 435L240 420L255 420L255 435L270 435L270 420L255 420L255 405L240 405L240 390L255 390L255 375L240 375L240 360L225 360L225 345L210 345L210 330L225 330L225 315L210 315L210 300L195 300L195 285L210 285L210 270L195 270L195 255L210 255L210 240L195 240L195 225L210 225L210 210L195 210L195 195L210 195L210 180L225 180L225 165L210 165L210 150L225 150L225 135L240 135L240 120L255 120L255 105L240 105L240 90L255 90L255 75L240 75L240 90L225 90L225 75L210 75L210 90L195 90L195 75L180 75L180 90L165 90L165 75L150 75L150 90L135 90L135 75L120 75L120 90L105 90L105 75L90 75M300 75L300 90L314 91L316 89L315 75L300 75M600 75L601 91L615 90L615 75L600 75M660 75L660 90L675 90L675 105L660 105L660 120L675 120L675 135L690 135L690 150L705 150L705 165L690 165L690 180L705 180L705 195L720 195L720 210L705 210L705 225L720 225L720 240L705 240L705 255L720 255L720 270L705 270L705 285L720 285L720 300L705 300L705 315L690 315L690 330L705 330L705 345L690 345L690 360L675 360L675 375L660 375L660 390L675 390L675 405L660 405L660 420L645 420L645 435L660 435L660 420L675 420L675 435L690 435L690 420L705 420L705 435L720 435L720 420L735 420L735 435L750 435L750 420L765 420L765 435L780 435L780 420L795 420L795 435L810 435L810 420L825 420L825 435L840 435L840 420L855 420L855 405L840 405L840 390L855 390L855 375L840 375L840 360L855 360L855 345L840 345L840 330L855 330L855 315L840 315L840 300L855 300L855 285L840 285L840 270L855 270L855 255L840 255L840 240L855 240L855 225L840 225L840 210L855 210L855 195L840 195L840 180L855 180L855 165L840 165L840 150L855 150L855 135L840 135L840 120L855 120L855 105L840 105L840 90L855 90L855 75L840 75L840 90L825 90L825 75L810 75L810 90L795 90L795 75L780 75L780 90L765 90L765 75L750 75L750 90L735 90L735 75L720 75L720 90L705 90L705 75L690 75L690 90L675 90L675 75L660 75M328 76L329 77L328 76M586 76L587 77L586 76M327 77L328 78L327 77M587 77L588 78L587 77M326 78L327 79L326 78M588 78L589 79L588 78M321 82L322 83L321 82M593 82L594 83L593 82M320 83L321 84L320 83M594 83L595 84L594 83M319 84L320 85L319 84M595 84L596 85L595 84M318 85L319 86L318 85M596 85L597 86L596 85M317 86L318 87L317 86M597 86L598 87L597 86M316 87L317 88L316 87M598 87L599 88L598 87z"/>
<path style="fill:#ffffff; stroke:none;" d="M90 90L90 105L105 105L105 120L90 120L90 135L105 135L105 150L90 150L90 165L105 165L105 180L90 180L90 195L105 195L105 210L90 210L90 225L105 225L105 240L90 240L90 255L105 255L105 270L90 270L90 285L105 285L105 300L90 300L90 315L105 315L105 330L90 330L90 345L105 345L105 360L90 360L90 375L105 375L105 390L90 390L90 405L105 405L105 420L120 420L120 405L135 405L135 420L150 420L150 405L165 405L165 420L180 420L180 405L195 405L195 420L210 420L210 405L225 405L225 420L240 420L240 405L225 405L225 390L240 390L240 375L225 375L225 360L210 360L210 345L195 345L195 330L210 330L210 315L195 315L195 300L180 300L180 285L195 285L195 270L180 270L180 255L195 255L195 240L180 240L180 225L195 225L195 210L180 210L180 195L195 195L195 180L210 180L210 165L195 165L195 150L210 150L210 135L225 135L225 120L240 120L240 105L225 105L225 90L210 90L210 105L195 105L195 90L180 90L180 105L165 105L165 90L150 90L150 105L135 105L135 90L120 90L120 105L105 105L105 90L90 90z"/>
<path style="fill:#e7e7e7; stroke:none;" d="M285 90L285 105L300 106L301 105L300 90L285 90M615 90L614 105L615 106L630 105L630 90L615 90z"/>
<path style="fill:#ffffff; stroke:none;" d="M690 90L690 105L675 105L675 120L690 120L690 135L705 135L705 150L720 150L720 165L705 165L705 180L720 180L720 195L735 195L735 210L720 210L720 225L735 225L735 240L720 240L720 255L735 255L735 270L720 270L720 285L735 285L735 300L720 300L720 315L705 315L705 330L720 330L720 345L705 345L705 360L690 360L690 375L675 375L675 390L690 390L690 405L675 405L675 420L690 420L690 405L705 405L705 420L720 420L720 405L735 405L735 420L750 420L750 405L765 405L765 420L780 420L780 405L795 405L795 420L810 420L810 405L825 405L825 420L840 420L840 405L825 405L825 390L840 390L840 375L825 375L825 360L840 360L840 345L825 345L825 330L840 330L840 315L825 315L825 300L840 300L840 285L825 285L825 270L840 270L840 255L825 255L825 240L840 240L840 225L825 225L825 210L840 210L840 195L825 195L825 180L840 180L840 165L825 165L825 150L840 150L840 135L825 135L825 120L840 120L840 105L825 105L825 90L810 90L810 105L795 105L795 90L780 90L780 105L765 105L765 90L750 90L750 105L735 105L735 90L720 90L720 105L705 105L705 90L690 90z"/>
<path style="fill:#e7e7e7; stroke:none;" d="M915 90L915 105L920 105L920 90L915 90M312 91L313 92L312 91M602 91L603 92L602 91M311 92L312 93L311 92M604 93L605 94L604 93M309 94L310 95L309 94M308 95L309 96L308 95M606 95L607 96L606 95M307 96L308 97L307 96M607 96L608 97L607 96M306 97L307 98L306 97M608 97L609 98L608 97M305 98L306 99L305 98M609 98L610 99L609 98M304 99L305 100L304 99M610 99L611 100L610 99M301 103L302 104L301 103M420 120C413.665 120.001 409.267 119.908 406 126L401 129L405 126L405 135C400.977 135 395.203 136.189 396 133L395 133C390.233 138.709 390 142.736 390 150C381.64 150 375.4 149.69 370 157L375 153L375 165L362 165L365 161C358.334 165.895 360 172.509 360 180L345 180L345 188L360 188L360 180L375 180L375 188L390 188L390 180L405 180L405 195L395 195L398 202L399 206L398 210L405 210L407 227L408 227C408 223.415 416.875 225 420 225C420 238.404 421.531 240 435 240L434 245L451 248L450 240L459 240L459 239L451 236L450 240L435 240C435 235.087 433.436 227.959 438 225L436 221L435 221L435 225L420 225L420 210L429 211L423 194L420 195L421 179L405 180L405 165L420 165L420 176L421 176L423 164L420 165L420 150C423.925 150 428.78 148.881 428 152L429 152L429 149L437 145L437 144C433.559 144 435 137.879 435 135L450 135L447 140L447 141L465 143L465 135L480 135L480 150L475 150L481 156L480 150L495 150L495 165L487 165L495 178L495 165L510 165L510 180L494 179L497 195L510 195L510 210L497 208L496 208L495 225L491 224L480 240L465 241L465 255L459 253L458 253L459 272L460 272L465 270L466 286L480 285L479 297L493 302L493 303L510 315L515 326L514 330L525 330L525 345L516 345L516 341L515 341L516 349L514 355L513 357L511 357L512 359L499 372L495 375C491.364 374.507 489.088 374.863 487 378L484 379L480 378L478 389L478 390L496 385L495 375L510 375L509 378L512 376L510 360L525 362L526 362L525 345L532 347L533 347L534 330L525 330L525 315L532 318L533 318C531.147 305.455 520.17 284.292 506 283C503.734 278.525 499.834 275.344 495 274L495 285L480 285L480 270L492 270L486 255L480 255L480 240C487.539 240.005 492.21 240.701 497 234C493.559 234 495 227.879 495 225L507 225L505 228L513 220L510 222L510 210L519 211L523 195L510 195L510 180C514.192 180 518.52 179.175 521 183L522 183L517 160L516 160L516 165L510 165L510 150L527 149L527 148C523.388 148 525 138.207 525 135L543 136L540 135L540 120L555 120L553 128L558 125L560 131L558 135L568 136L567 120L555 120L555 104L540 104L540 120L525 120L525 104L510 104L510 120L495 120L495 104L480 104L480 120L465 120L465 104L450 104L450 120L435 120L435 104C424.728 105.257 420.008 109.001 420 120M570 104L570 114L580 105L570 104M0 105L0 120L15 120L15 105L0 105M120 105L120 120L105 120L105 135L120 135L120 150L105 150L105 165L120 165L120 180L105 180L105 195L120 195L120 210L105 210L105 225L120 225L120 240L105 240L105 255L120 255L120 270L105 270L105 285L120 285L120 300L105 300L105 315L120 315L120 330L105 330L105 345L120 345L120 360L105 360L105 375L120 375L120 390L105 390L105 405L120 405L120 390L135 390L135 405L150 405L150 390L165 390L165 405L180 405L180 390L195 390L195 405L210 405L210 390L225 390L225 375L210 375L210 360L195 360L195 345L180 345L180 330L195 330L195 315L180 315L180 300L165 300L165 285L180 285L180 270L165 270L165 255L180 255L180 240L165 240L165 225L180 225L180 210L165 210L165 195L180 195L180 180L195 180L195 165L180 165L180 150L195 150L195 135L210 135L210 120L225 120L225 105L210 105L210 120L195 120L195 105L180 105L180 120L165 120L165 105L150 105L150 120L135 120L135 105L120 105z"/>
<path style="fill:#ffffff; stroke:none;" d="M435 105L435 120L450 120L450 105L435 105M465 105L465 120L480 120L480 105L465 105M495 105L495 120L510 120L510 105L495 105M525 105L525 120L540 120L540 105L525 105M555 105L555 120C566.894 120 569.999 117.204 570 105L555 105z"/>
<path style="fill:#e7e7e7; stroke:none;" d="M690 105L690 120L705 120L705 135L720 135L720 150L735 150L735 165L720 165L720 180L735 180L735 195L750 195L750 210L735 210L735 225L750 225L750 240L735 240L735 255L750 255L750 270L735 270L735 285L750 285L750 300L735 300L735 315L720 315L720 330L735 330L735 345L720 345L720 360L705 360L705 375L690 375L690 390L705 390L705 405L720 405L720 390L735 390L735 405L750 405L750 390L765 390L765 405L780 405L780 390L795 390L795 405L810 405L810 390L825 390L825 375L810 375L810 360L825 360L825 345L810 345L810 330L825 330L825 315L810 315L810 300L825 300L825 285L810 285L810 270L825 270L825 255L810 255L810 240L825 240L825 225L810 225L810 210L825 210L825 195L810 195L810 180L825 180L825 165L810 165L810 150L825 150L825 135L810 135L810 120L825 120L825 105L810 105L810 120L795 120L795 105L780 105L780 120L765 120L765 105L750 105L750 120L735 120L735 105L720 105L720 120L705 120L705 105L690 105M298 106L299 107L298 106M616 106L617 107L616 106M617 107L618 108L617 107M296 109L297 110L296 109M295 110L296 111L295 110M619 110L620 111L619 110M294 111L295 112L294 111M620 111L621 112L620 111z"/>
<path style="fill:#ffffff; stroke:none;" d="M419 112L411 119L411 120L420 120L419 112z"/>
<path style="fill:#e7e7e7; stroke:none;" d="M417 113L418 114L417 113M292 114L293 115L292 114M416 114L417 115L416 114M622 114L623 115L622 114M291 115L292 116L291 115M415 115L416 116L415 115M569 115L570 116L569 115M623 115L624 116L623 115M414 116L415 117L414 116M568 116L569 117L568 116M290 117L291 118L290 117M413 117L414 118L413 117M289 118L290 119L289 118M412 118L413 119L412 118M567 118L568 119L567 118M625 118L626 119L625 118M288 119L289 120L288 119M626 119L627 120L626 119z"/>
<path style="fill:#ffffff; stroke:none;" d="M120 120L120 135L135 135L135 150L120 150L120 165L135 165L135 180L120 180L120 195L135 195L135 210L120 210L120 225L135 225L135 240L120 240L120 255L135 255L135 270L120 270L120 285L135 285L135 300L120 300L120 315L135 315L135 330L120 330L120 345L135 345L135 360L120 360L120 375L135 375L135 390L150 390L150 375L165 375L165 390L180 390L180 375L195 375L195 390L210 390L210 375L195 375L195 360L180 360L180 345L165 345L165 330L180 330L180 315L165 315L165 300L150 300L150 285L165 285L165 270L150 270L150 255L165 255L165 240L150 240L150 225L165 225L165 210L150 210L150 195L165 195L165 180L180 180L180 165L165 165L165 150L180 150L180 135L195 135L195 120L180 120L180 135L165 135L165 120L150 120L150 135L135 135L135 120L120 120z"/>
<path style="fill:#e7e7e7; stroke:none;" d="M285 120L285 125L286 125L288 120L285 120z"/>
<path style="fill:#ffffff; stroke:none;" d="M420 120L420 135L405 135L405 150L390 150L390 165L375 165L375 180L390 180L390 165L405 165L405 150L420 150L420 135L435 135L435 120L420 120M450 120L450 135L465 135L465 120L450 120M480 120L480 135L495 135L495 150L510 150L510 135L525 135L525 120L510 120L510 135L495 135L495 120L480 120M540 120L540 135C547.544 133.857 554.746 127.791 555 120L540 120z"/>
<path style="fill:#e7e7e7; stroke:none;" d="M627 120L629 124L630 124L630 120L627 120z"/>
<path style="fill:#ffffff; stroke:none;" d="M720 120L720 135L735 135L735 150L750 150L750 165L735 165L735 180L750 180L750 195L765 195L765 210L750 210L750 225L765 225L765 240L750 240L750 255L765 255L765 270L750 270L750 285L765 285L765 300L750 300L750 315L735 315L735 330L750 330L750 345L735 345L735 360L720 360L720 375L705 375L705 390L720 390L720 375L735 375L735 390L750 390L750 375L765 375L765 390L780 390L780 375L795 375L795 390L810 390L810 375L795 375L795 360L810 360L810 345L795 345L795 330L810 330L810 315L795 315L795 300L810 300L810 285L795 285L795 270L810 270L810 255L795 255L795 240L810 240L810 225L795 225L795 210L810 210L810 195L795 195L795 180L810 180L810 165L795 165L795 150L810 150L810 135L795 135L795 120L780 120L780 135L765 135L765 120L750 120L750 135L735 135L735 120L720 120z"/>
<path style="fill:#e7e7e7; stroke:none;" d="M915 120L915 135L920 135L920 120L915 120z"/>
<path style="fill:#ffffff; stroke:none;" d="M409 122L410 123L409 122M406 124L407 125L406 124z"/>
<path style="fill:#e7e7e7; stroke:none;" d="M284 125L285 126L284 125z"/>
<path style="fill:#ffffff; stroke:none;" d="M405 125L406 126L405 125z"/>
<path style="fill:#e7e7e7; stroke:none;" d="M630 125L631 126L630 125z"/>
<path style="fill:#ffffff; stroke:none;" d="M404 126L395 135L405 135L404 126z"/>
<path style="fill:#e7e7e7; stroke:none;" d="M283 127L284 128L283 127M631 127L632 128L631 127M282 128L283 129L282 128M551 128L552 129L551 128M632 128L633 129L632 128M550 129L551 130L550 129M281 130L282 131L281 130z"/>
<path style="fill:#ffffff; stroke:none;" d="M559 130L560 131L559 130z"/>
<path style="fill:#e7e7e7; stroke:none;" d="M633 130L634 131L633 130M547 131L548 132L547 131M634 131L635 132L634 131M280 132L281 133L280 132M546 132L547 133L546 132M279 133L280 134L279 133M635 133L636 134L635 133M0 135L0 150L15 150L15 135L0 135M150 135L150 150L135 150L135 165L150 165L150 180L135 180L135 195L150 195L150 180L165 180L165 165L150 165L150 150L165 150L165 135L150 135M270 135L270 150L255 150L255 165C269.262 164.989 273.074 146.263 279 135L270 135z"/>
<path style="fill:#ffffff; stroke:none;" d="M435 135L435 145L450 140L450 135L435 135M465 135C465.007 144.276 470.319 149.692 480 150L480 135L465 135M525 135L525 149C530.766 146.128 538.12 141.41 540 135L525 135M558 135C551.119 160.221 555 184.259 555 210L552 210L552 225L555 225L554 247L555 247L555 240L570 240L570 248L571 248L573 240C568.436 237.041 570 229.913 570 225L574 224L573 210L570 210C570 196.097 569.692 181.953 570.308 168C570.532 162.909 572.425 158.175 571.773 152.996C570.478 142.7 569.458 135.009 558 135z"/>
<path style="fill:#e7e7e7; stroke:none;" d="M636 135L645 148L645 135L636 135M750 135L750 150L765 150L765 165L750 165L750 180L765 180L765 195L780 195L780 210L765 210L765 225L780 225L780 240L765 240L765 255L780 255L780 270L765 270L765 285L780 285L780 300L765 300L765 315L750 315L750 330L765 330L765 345L750 345L750 360L735 360L735 375L750 375L750 360L765 360L765 375L780 375L780 360L795 360L795 345L780 345L780 330L795 330L795 315L780 315L780 300L795 300L795 285L780 285L780 270L795 270L795 255L780 255L780 240L795 240L795 225L780 225L780 210L795 210L795 195L780 195L780 180L795 180L795 165L780 165L780 150L795 150L795 135L780 135L780 150L765 150L765 135L750 135M557.333 136.667L557.667 137.333L557.333 136.667M539 138L540 139L539 138M568 138L569 139L568 138z"/>
<path style="fill:#ffffff; stroke:none;" d="M389 139L378 149L378 150L390 150L389 139z"/>
<path style="fill:#e7e7e7; stroke:none;" d="M556 139L557 140L556 139M536 140L537 141L536 140M569.333 140.667L569.667 141.333L569.333 140.667M443.667 141.333L444.333 141.667L443.667 141.333z"/>
<path style="fill:#b1b1b1; stroke:none;" d="M445 141.518C430.281 144.663 422.274 158.895 420.87 172.985C418.244 199.353 439.719 248.151 473 240.471C487.122 237.212 494.35 222.084 496.41 209C500.897 180.492 480.055 134.028 445 141.518z"/>
<path style="fill:#e7e7e7; stroke:none;" d="M535 141L536 142L535 141M555.333 141.667L555.667 142.333L555.333 141.667M385 142L386 143L385 142M440.667 142.333L441.333 142.667L440.667 142.333M534 142L535 143L534 142M384 143L385 144L384 143M438 143L439 144L438 143M570 143L570 147L571 147L570 143M383 144L384 145L383 144M466 144L467 145L466 144M554 144L553 150L554 144M382 145L383 146L382 145M468 145L469 146L468 145M530 145L531 146L530 145M381 146L382 147L381 146M529 146L530 147L529 146M380 147L381 148L380 147M471 147L472 148L471 147M472 148L473 149L472 148M570 148L572 151L572 148L570 148z"/>
<path style="fill:#ffffff; stroke:none;" d="M429 149L430 150L429 149z"/>
<path style="fill:#e7e7e7; stroke:none;" d="M644 149C646.723 158.451 649.612 164.97 660 165L660 150L644 149z"/>
<path style="fill:#ffffff; stroke:none;" d="M420 150L420 165L429 150L420 150M480 150C480.491 158.967 486.196 164.969 495 165L495 150L480 150M510 150L510 165L516 165C516.16 158.394 518.845 154.963 524 151L510 150z"/>
<path style="fill:#e7e7e7; stroke:none;" d="M555 150L555 165L570 165L570 150L555 150M915 150L915 165L920 165L920 150L915 150z"/>
<path style="fill:#ffffff; stroke:none;" d="M376 152L377 153L376 152z"/>
<path style="fill:#e7e7e7; stroke:none;" d="M521 152L522 153L521 152z"/>
<path style="fill:#ffffff; stroke:none;" d="M374 153L362 165L375 165L374 153z"/>
<path style="fill:#e7e7e7; stroke:none;" d="M427 153L428 154L427 153M520 153L521 154L520 153M426.333 154.667L426.667 155.333L426.333 154.667M519 154L520 155L519 154M552 154L553 155L552 154M518 155L519 156L518 155M425.333 156.667L425.667 157.333L425.333 156.667M517 156L518 157L517 156M424.333 158.667L424.667 159.333L424.333 158.667M516 158L517 159L516 158M552 158L553 159L552 158M483 159L484 160L483 159M571 159L572 160L571 159M484 160L485 161L484 160M423 161L424 162L423 161M571 161L570 171L571 171L571 161M485 162L486 163L485 162M486 163L487 164L486 163M0 165L0 180L15 180L15 165L0 165z"/>
<path style="fill:#ffffff; stroke:none;" d="M405 165L405 180L420 180L420 165L405 165M495 165L494 179L510 180L510 165L495 165z"/>
<path style="fill:#e7e7e7; stroke:none;" d="M553 165L553 182L554 182L555 165L553 165M651.333 165.667L651.667 166.333L651.333 165.667z"/>
<path style="fill:#ffffff; stroke:none;" d="M765 165L765 180L780 180L780 165L765 165z"/>
<path style="fill:#e7e7e7; stroke:none;" d="M263.333 166.667L263.667 167.333L263.333 166.667z"/>
<path style="fill:#ffffff; stroke:none;" d="M345 179L345 180L360 180L360 167L345 179z"/>
<path style="fill:#e7e7e7; stroke:none;" d="M262.333 168.667L262.667 169.333L262.333 168.667M652 169L653 170L652 169M354 170L355 171L354 170M261.333 171.667L261.667 172.333L261.333 171.667M353 171L354 172L353 171M653 171L654 172L653 171M352 172L353 173L352 172M570 172L570 175L571 175L570 172M351 173L352 174L351 173M260 174L261 175L260 174M350 174L351 175L350 174M654 174L655 175L654 174M349 175L350 176L349 175M570 176L570 179L571 179L570 176M259.333 177.667L259.667 178.333L259.333 177.667M347 177L348 178L347 177M420 177L421 178L420 177M655 177L656 178L655 177M255 180L255 191L256 191L259 180L255 180M343 180L344 181L343 180z"/>
<path style="fill:#ffffff; stroke:none;" d="M344 180L336 187L336 188L345 188L344 180M360 180L360 188L375 188L375 180L360 180M390 180L390 188L395 188L395 195L405 195L405 180L390 180M510 180L510 195L523 195L521 180L510 180z"/>
<path style="fill:#e7e7e7; stroke:none;" d="M555 180L555 195L570 195L570 180L555 180M571 180L571 187L572 187L571 180M656 180L659 184L659 191L660 191L660 180L656 180M915 180L915 195L920 195L920 180L915 180M341 182L342 183L341 182M340 183L341 184L340 183M339 184L340 185L339 184M522 184L522 188L523 188L522 184z"/>
<path style="fill:#ffffff; stroke:none;" d="M658 184L659 185L658 184z"/>
<path style="fill:#e7e7e7; stroke:none;" d="M338 185L339 186L338 185M337 186L338 187L337 186z"/>
<path style="fill:#ffffff; stroke:none;" d="M420 186L422 195L420 186M496 186L497 187L496 186z"/>
<path style="fill:#e7e7e7; stroke:none;" d="M336 188L337 189L336 188M394 188L394 191L395 191L394 188M421 189L421 192L422 192L421 189M552 189L553 190L552 189M552 191L552 210C558.366 208.636 554.729 194.895 552 191M394 192L395 193L394 192z"/>
<path style="fill:#ffffff; stroke:none;" d="M497 192L498 193L497 192z"/>
<path style="fill:#e7e7e7; stroke:none;" d="M572.333 193.667L572.667 194.333L572.333 193.667M254 194L240 195L240 210L252 211L254 194M660 194L661 195L660 194M0 195L0 210L15 210L15 195L0 195z"/>
<path style="fill:#ffffff; stroke:none;" d="M405 195L405 210L420 210L420 195L405 195M497 195L497 210L510 210L510 195L497 195z"/>
<path style="fill:#e7e7e7; stroke:none;" d="M570 195L570 210L573 210L573 218L574 218L572 195L570 195M661 195L664 204L663 210L675 210L675 195L661 195z"/>
<path style="fill:#ffffff; stroke:none;" d="M661 196L662 197L661 196M397 202L398 203L397 202z"/>
<path style="fill:#e7e7e7; stroke:none;" d="M497 203L498 204L497 203z"/>
<path style="fill:#ffffff; stroke:none;" d="M663 204L664 205L663 204M398 206L399 207L398 206M552 206L553 207L552 206M552 208L553 209L552 208z"/>
<path style="fill:#e7e7e7; stroke:none;" d="M135 210L135 225L150 225L150 210L135 210z"/>
<path style="fill:#ffffff; stroke:none;" d="M399 210L404 222L405 222L405 210L399 210M420 210L420 225L435 225C434.351 216.058 428.776 210.031 420 210M510 210L510 222L518 210L510 210z"/>
<path style="fill:#e7e7e7; stroke:none;" d="M555 210L555 225L570 225L570 210L555 210M915 210L915 225L920 225L920 210L915 210M399.333 211.667L399.667 212.333L399.333 211.667M551 211L552 212L551 211M429 212L430 213L429 212M517 212L518 213L517 212M430.333 213.667L430.667 214.333L430.333 213.667M551 213L552 214L551 213M250 214L250 217L251 217L250 214M400 214L401 215L400 214M516 214L517 215L516 214M664 214L664 217L665 217L664 214M431 215L432 216L431 215M515.333 215.667L515.667 216.333L515.333 215.667M551 215L552 216L551 215M432 217L433 218L432 217M514 217L515 218L514 217M551 217L551 225L552 225L551 217M250 218L251 219L250 218M433 218L434 219L433 218z"/>
<path style="fill:#ffffff; stroke:none;" d="M494 219L492 225C495.332 224.286 495.591 221.762 494 219z"/>
<path style="fill:#e7e7e7; stroke:none;" d="M573 219L574 220L573 219M403 220L404 221L403 220M493 220L494 221L493 220M573 221L574 222L573 221M665 221L665 224L666 224L665 221M249 222L249 225L250 225L249 222M492 222L493 223L492 222M573 224L570 225L570 240C575.319 238.443 575.038 228.221 573 224M0 225L0 240L15 240L15 225L0 225M240 225L240 240L247 238C252.625 230.098 248.427 225.007 240 225z"/>
<path style="fill:#ffffff; stroke:none;" d="M407 225L420 238L420 225L407 225M435 225L435 240L450 240L451 236L435 225M495 225L495 235L507 225L495 225z"/>
<path style="fill:#e7e7e7; stroke:none;" d="M551 226L552 241C556.647 237.648 555 230.219 555 225L551 226M666 225L668 236L668 237L666 240L675 240L675 225L666 225M439 226L440 227L439 226z"/>
<path style="fill:#ffffff; stroke:none;" d="M666 226L667 227L666 226z"/>
<path style="fill:#e7e7e7; stroke:none;" d="M440 227L441 228L440 227M441 228L442 229L441 228z"/>
<path style="fill:#ffffff; stroke:none;" d="M490 228L491 229L490 228z"/>
<path style="fill:#e7e7e7; stroke:none;" d="M409 229L410 230L409 229M442 229L443 230L442 229M502 229L503 230L502 229M410 230L411 231L410 230M443 230L444 231L443 230M501 230L502 231L501 230M411 231L412 232L411 231M500 231L501 232L500 231M412 232L413 233L412 232M446 232L446 234L448 234L446 232z"/>
<path style="fill:#ffffff; stroke:none;" d="M552 232L553 233L552 232z"/>
<path style="fill:#e7e7e7; stroke:none;" d="M413 233L414 234L413 233M448 234L449 235L448 234z"/>
<path style="fill:#ffffff; stroke:none;" d="M485 234L486 235L485 234M552 234L553 235L552 234z"/>
<path style="fill:#e7e7e7; stroke:none;" d="M416 235L417 236L416 235M417 236L418 237L417 236z"/>
<path style="fill:#ffffff; stroke:none;" d="M667 236L668 237L667 236M247 237L248 238L247 237z"/>
<path style="fill:#e7e7e7; stroke:none;" d="M478 238L479 239L478 238z"/>
<path style="fill:#ffffff; stroke:none;" d="M479 238L477 239L477 240L479 238z"/>
<path style="fill:#e7e7e7; stroke:none;" d="M135 240L135 255L150 255L150 240L135 240M248 240L248 255L240 255L240 270L250 270L248 240z"/>
<path style="fill:#ffffff; stroke:none;" d="M424 240L424 241L435 244L435 240L424 240M450 240L450 247L461 247L459 255L465 255L465 241L450 240z"/>
<path style="fill:#e7e7e7; stroke:none;" d="M461 240L462 241L461 240z"/>
<path style="fill:#ffffff; stroke:none;" d="M480 240L480 255L486 255L490 240L480 240z"/>
<path style="fill:#e7e7e7; stroke:none;" d="M555 240C554.815 250.845 561.104 253.193 571 249L570 240L555 240M915 240L915 255L920 255L920 240L915 240M426 241L427 242L426 241z"/>
<path style="fill:#ffffff; stroke:none;" d="M471 241L472 242L471 241z"/>
<path style="fill:#e7e7e7; stroke:none;" d="M572 241L572 244L573 244L572 241M666 241L667 242L666 241M428 242L429 243L428 242M489 242L490 243L489 242M431 243L432 244L431 243M488 243L489 244L488 243M666 243L667 244L666 243M553.333 244.667L553.667 245.333L553.333 244.667M487 245L488 246L487 245M571.333 245.667L571.667 246.333L571.333 245.667M666 245L667 246L666 245M452 247L452 248L461 248L452 247M666 247L667 248L666 247M486 248L487 249L486 248M666 249L667 250L666 249M666 251L667 252L666 251M562 252L563 253L562 252M666 253L667 254L666 253M0 255L0 270L15 270L15 255L0 255z"/>
<path style="fill:#ffffff; stroke:none;" d="M465 255L465 270L480 270L480 255L465 255z"/>
<path style="fill:#e7e7e7; stroke:none;" d="M666 255L668 258L668 259C665.07 259.586 665.512 261.502 668 262L666 270L675 270L675 255L666 255z"/>
<path style="fill:#ffffff; stroke:none;" d="M667 258L668 259L667 258M667 262L668 263L667 262z"/>
<path style="fill:#e7e7e7; stroke:none;" d="M135 270L135 285L150 285L150 270L135 270z"/>
<path style="fill:#ffffff; stroke:none;" d="M460 270L464 282L465 282L465 270L460 270M480 270L480 285L495 285C495.001 271.862 493.325 270 480 270z"/>
<path style="fill:#e7e7e7; stroke:none;" d="M493 270L494 271L493 270M915 270L915 285L920 285L920 270L915 270M249 271L249 276L250 276L249 271M665 271L666 272L665 271M460 273L461 274L460 273M665 273L665 277L666 277L665 273M461 276L462 277L461 276M462 278L463 279L462 278M250 279L250 283L251 283L250 279z"/>
<path style="fill:#ffffff; stroke:none;" d="M501 279L502 280L501 279z"/>
<path style="fill:#e7e7e7; stroke:none;" d="M463 280L464 281L463 280M664 280L664 284L665 284L664 280z"/>
<path style="fill:#ffffff; stroke:none;" d="M465 282L466 283L465 282M506 282L507 283L506 282z"/>
<path style="fill:#e7e7e7; stroke:none;" d="M0 285L0 300L15 300L15 285L0 285M240 285L240 300L254 300C252.567 288.904 251.617 285 240 285z"/>
<path style="fill:#ffffff; stroke:none;" d="M480 296L480 285C476.325 285 469.661 283.758 466.603 286.179C458.375 292.695 476.913 295.584 480 296M495 285L495 300L510 300L510 315L525 315L525 299L510 300L510 285L495 285z"/>
<path style="fill:#e7e7e7; stroke:none;" d="M664 285L661 300L675 300L675 285L664 285M448 286L449 287L448 286M450 286L448 294L448 295L467 294L467 293L465 286L450 286z"/>
<path style="fill:#ffffff; stroke:none;" d="M664 286L665 287L664 286z"/>
<path style="fill:#e7e7e7; stroke:none;" d="M441 287L441 288L445 288L441 287z"/>
<path style="fill:#ffffff; stroke:none;" d="M435 289L435 298C442.455 295.616 449.89 296.226 450 287L435 289z"/>
<path style="fill:#e7e7e7; stroke:none;" d="M435 288L435 289L438 289L435 288M424 293L421 292L420 300L405 299L404 300L405 315L390 313L389 313L390 330C376.864 330.009 377 337.494 377 349L378 349L378 345L390 345L390 360L381 359L390 370L390 360L405 360L405 375L396 375L406 382L405 375L420 375L419 388L459 393L459 392L450 392L450 390L474 391L474 390L465 390L466 380L450 380L450 390L435 390L437 377L437 376L420 375L421 368L410 356L409 356L411 360L405 360L406 345L390 345L390 330L404 330L404 343L405 343L405 315L410 315L407 322L408 322C410.801 315.319 415.075 310.174 421 306L420 300C429.998 300.026 434.991 300.434 435 289L424 293z"/>
<path style="fill:#ffffff; stroke:none;" d="M423 292L424 293L423 292z"/>
<path style="fill:#e7e7e7; stroke:none;" d="M418 293L419 294L418 293z"/>
<path style="fill:#ffffff; stroke:none;" d="M419 293L406 299L406 300L420 300L419 293z"/>
<path style="fill:#e7e7e7; stroke:none;" d="M415 294L416 295L415 294z"/>
<path style="fill:#b1b1b1; stroke:none;" d="M450 294.439C437.623 296.372 424.029 300.975 415.043 310.04C400.925 324.284 401.578 349.561 415.184 363.91C429.893 379.422 454.896 382.793 475 379.562C505.944 374.588 529.202 342.7 507.329 314.286C494.646 297.812 469.936 291.325 450 294.439z"/>
<path style="fill:#e7e7e7; stroke:none;" d="M470 294L470 295L473 295L470 294M413 295L414 296L413 295M443.667 295.333L444.333 295.667L443.667 295.333M452 295L453 296L452 295M475.667 295.333L476.333 295.667L475.667 295.333M254 296L255 297L254 296M439.667 296.333L440.333 296.667L439.667 296.333M409 297L410 298L409 297M436.667 297.333L437.333 297.667L436.667 297.333z"/>
<path style="fill:#ffffff; stroke:none;" d="M662 297L663 298L662 297z"/>
<path style="fill:#e7e7e7; stroke:none;" d="M407 298L408 299L407 298M135 300L135 315L150 315L150 330L135 330L135 345L150 345L150 360L135 360L135 375L150 375L150 360L165 360L165 375L180 375L180 360L165 360L165 345L150 345L150 330L165 330L165 315L150 315L150 300L135 300z"/>
<path style="fill:#ffffff; stroke:none;" d="M420 300L420 305L429 301L420 300M490 300L490 301L495 303C494.346 299.946 492.993 300.064 490 300z"/>
<path style="fill:#e7e7e7; stroke:none;" d="M915 300L915 315L920 315L920 300L915 300M254.333 301.667L254.667 302.333L254.333 301.667M402 301L403 302L402 301z"/>
<path style="fill:#ffffff; stroke:none;" d="M390 315L405 315L405 301C398.637 303.146 391.857 308.388 390 315z"/>
<path style="fill:#e7e7e7; stroke:none;" d="M426.667 301.333L427.333 301.667L426.667 301.333M491 301L492 302L491 301M660 301L660 304L661 304L660 301M425 302L426 303L425 302M399 303L400 304L399 303M423 303L424 304L423 303M398 304L399 305L398 304M255 305C255 308.767 253.587 314.054 258 315L255 305M397 305L398 306L397 305M659 306L657 315C661.017 314.139 660.76 309.055 659 306z"/>
<path style="fill:#ffffff; stroke:none;" d="M502 308L503 309L502 308M658 312L659 313L658 312z"/>
<path style="fill:#e7e7e7; stroke:none;" d="M0 315L0 330L15 330L15 315L0 315M258 315L258 318L259 318L258 315z"/>
<path style="fill:#ffffff; stroke:none;" d="M388 315L380 331L390 330L390 315L388 315M405 315L405 326L406 326L410 315L405 315M508 315L510 317L510 315L508 315M525 315L525 330L534 330L532 315L525 315M765 315L765 330L780 330L780 315L765 315z"/>
<path style="fill:#e7e7e7; stroke:none;" d="M656.333 316.667L656.667 317.333L656.333 316.667M386 317L387 318L386 317M259.333 319.667L259.667 320.333L259.333 319.667M533 319L534 320L533 319M655.333 319.667L655.667 320.333L655.333 319.667M384 320L385 321L384 320M533 321L533 325L534 325L533 321M260.333 322.667L260.667 323.333L260.333 322.667M654.333 322.667L654.667 323.333L654.333 322.667M406 323L407 324L406 323M261 325L262 326L261 325M381.333 325.667L381.667 326.333L381.333 325.667M653.333 325.667L653.667 326.333L653.333 325.667z"/>
<path style="fill:#ffffff; stroke:none;" d="M514 326L515 327L514 326z"/>
<path style="fill:#e7e7e7; stroke:none;" d="M262 328L263 329L262 328M380 328L381 329L380 328M652 328L653 329L652 328M255 330L255 345L269 345L264 330L255 330z"/>
<path style="fill:#ffffff; stroke:none;" d="M390 330L390 345L405 345L404 330L390 330M515 330L516 345L525 345L525 330L515 330z"/>
<path style="fill:#e7e7e7; stroke:none;" d="M646 344L660 345L660 330C650.57 330.085 648.792 335.798 646 344M915 330L915 345L920 345L920 330L915 330M515 334L515 338L516 338L515 334M515 339L516 340L515 339z"/>
<path style="fill:#ffffff; stroke:none;" d="M532 341L533 342L532 341z"/>
<path style="fill:#e7e7e7; stroke:none;" d="M0 345L0 360L15 360L15 345L0 345z"/>
<path style="fill:#ffffff; stroke:none;" d="M378 345C378.19 354.141 380.171 359.965 390 360L390 345L378 345M525 345L525 360C529.684 356.929 531.216 350.306 532 345L525 345z"/>
<path style="fill:#e7e7e7; stroke:none;" d="M645 345L646 346L645 345z"/>
<path style="fill:#ffffff; stroke:none;" d="M765 345L765 360L780 360L780 345L765 345z"/>
<path style="fill:#e7e7e7; stroke:none;" d="M270 347L270 360L277 360L270 347z"/>
<path style="fill:#ffffff; stroke:none;" d="M405 347L405 360L411 360L405 347z"/>
<path style="fill:#e7e7e7; stroke:none;" d="M644 347L642 355L640 355L641 357L639 357L638 359L638 360L645 360L644 347z"/>
<path style="fill:#ffffff; stroke:none;" d="M515 348L516 349L515 348z"/>
<path style="fill:#e7e7e7; stroke:none;" d="M531.333 348.667L531.667 349.333L531.333 348.667M406 349L407 350L406 349M378.333 351.667L378.667 352.333L378.333 351.667M530.333 351.667L530.667 352.333L530.333 351.667M407 352L408 353L407 352M408 354L409 355L408 354z"/>
<path style="fill:#ffffff; stroke:none;" d="M513 354L514 355L513 354z"/>
<path style="fill:#e7e7e7; stroke:none;" d="M529 354L530 355L529 354z"/>
<path style="fill:#ffffff; stroke:none;" d="M641 354L642 355L641 354z"/>
<path style="fill:#e7e7e7; stroke:none;" d="M379 355L380 356L379 355z"/>
<path style="fill:#ffffff; stroke:none;" d="M512 356L513 357L512 356z"/>
<path style="fill:#e7e7e7; stroke:none;" d="M528 356L529 357L528 356z"/>
<path style="fill:#ffffff; stroke:none;" d="M640 356L641 357L640 356z"/>
<path style="fill:#e7e7e7; stroke:none;" d="M380 357L381 358L380 357z"/>
<path style="fill:#ffffff; stroke:none;" d="M511 358L512 359L511 358z"/>
<path style="fill:#e7e7e7; stroke:none;" d="M527 358L528 359L527 358z"/>
<path style="fill:#ffffff; stroke:none;" d="M639 358L640 359L639 358z"/>
<path style="fill:#e7e7e7; stroke:none;" d="M277 360L278 361L277 360z"/>
<path style="fill:#ffffff; stroke:none;" d="M390 360C390 371.672 393.19 374.999 405 375L405 360L390 360M510 360L510 375C517.107 373.31 523.17 367.037 525 360L510 360z"/>
<path style="fill:#e7e7e7; stroke:none;" d="M637 360L638 361L637 360M915 360L915 375L920 375L920 360L915 360M279 363L280 364L279 363M524 363L525 364L524 363M635 363L636 364L635 363M523 364L524 365L523 364M280 365L281 366L280 365M522 365L523 366L522 365M634 365L635 366L634 365M633 367L634 368L633 367M282 368L283 369L282 368M632 368L633 369L632 368z"/>
<path style="fill:#ffffff; stroke:none;" d="M420 369L420 375L430 375L430 374L420 369z"/>
<path style="fill:#e7e7e7; stroke:none;" d="M519 369L520 370L519 369M283 370L284 371L283 370M423 370L424 371L423 370M631 370L632 371L631 370M284 371L285 372L284 371M390 371L391 372L390 371z"/>
<path style="fill:#ffffff; stroke:none;" d="M498 371L499 372L498 371z"/>
<path style="fill:#e7e7e7; stroke:none;" d="M630 371L631 372L630 371M426 372L427 373L426 372M285.333 373.667L285.667 374.333L285.333 373.667M393 373L394 374L393 373M428 373L429 374L428 373z"/>
<path style="fill:#ffffff; stroke:none;" d="M493 375L496 373L493 375z"/>
<path style="fill:#e7e7e7; stroke:none;" d="M514 373L515 374L514 373M629.333 373.667L629.667 374.333L629.333 373.667M394 374L395 375L394 374M513 374L514 375L513 374M0 375L0 390L15 390L15 375L0 375z"/>
<path style="fill:#ffffff; stroke:none;" d="M405 375C405.27 383.232 412.697 385.742 420 387L420 375L405 375M430 375L431 376L430 375M495 375L495 384C500.727 382.64 507.059 380.362 510 375L495 375z"/>
<path style="fill:#e7e7e7; stroke:none;" d="M287 376L288 377L287 376M627 376L628 377L627 376M288 377L289 378L288 377z"/>
<path style="fill:#ffffff; stroke:none;" d="M435 377L435 390L450 390L450 380L435 377z"/>
<path style="fill:#e7e7e7; stroke:none;" d="M438.667 377.333L439.333 377.667L438.667 377.333z"/>
<path style="fill:#ffffff; stroke:none;" d="M486 377L487 378L486 377z"/>
<path style="fill:#e7e7e7; stroke:none;" d="M626 377L627 378L626 377M442 378L443 379L442 378z"/>
<path style="fill:#ffffff; stroke:none;" d="M483 378L484 379L483 378z"/>
<path style="fill:#e7e7e7; stroke:none;" d="M507 378L508 379L507 378M446.667 379.333L447.333 379.667L446.667 379.333M475.667 379.333L476.333 379.667L475.667 379.333z"/>
<path style="fill:#ffffff; stroke:none;" d="M465 381L465 390C475.462 390 479.999 390.592 480 379L465 381z"/>
<path style="fill:#e7e7e7; stroke:none;" d="M625 379L626 380L625 379M290 380L291 381L290 380M467 380L467 381L471 381L467 380M504 380L505 381L504 380M624 380L625 381L624 380M291 381L292 382L291 381z"/>
<path style="fill:#ffffff; stroke:none;" d="M457 381L457 382L464 382L457 381z"/>
<path style="fill:#e7e7e7; stroke:none;" d="M502 381L503 382L502 381M407 382L408 383L407 382M500 382L501 383L500 382M292 383L293 384L292 383M409 383L410 384L409 383M497.667 383.333L498.333 383.667L497.667 383.333M622 383L623 384L622 383M293 384L294 385L293 384M411 384L412 385L411 384M621 384L622 385L621 384M414 385L415 386L414 385M416 386L417 387L416 386M296 388L297 389L296 388M618 388L619 389L618 388M285 390L285 405L300 405L298 389L285 390M617 389L615 405L630 405L630 390L617 389z"/>
<path style="fill:#ffffff; stroke:none;" d="M433.667 390.333L434.333 390.667L433.667 390.333M450 390L450 392L465 392L465 390L450 390z"/>
<path style="fill:#e7e7e7; stroke:none;" d="M915 390L915 405L920 405L920 390L915 390M460 392L461 393L460 392M301 394L302 395L301 394M613 394L614 395L613 394M302 395L303 396L302 395M612 395L613 396L612 395M303 396L304 397L303 396M610 397L611 398L610 397M308 402L309 403L308 402M606 402L607 403L606 402M309 403L310 404L309 403M605 403L606 404L605 403M300 405L300 420L315 420C315.008 407.141 312.859 404.991 300 405M600 420L615 420L615 405C602.141 404.991 599.991 407.141 600 420M0 405L0 420L15 420L15 405L0 405M316 410L317 411L316 410M598 410L599 411L598 410M322 415L323 416L322 415M592 415L593 416L592 415M323 416L324 417L323 416M591 416L592 417L591 416M324 417L325 418L324 417M590 417L591 418L590 417M325 418L326 419L325 418M589 418L590 419L589 418M315 420L315 435L330 435C330 422.082 327.797 420 315 420M584 422L585 435L600 435L600 420L584 422M915 420L915 435L920 435L920 420L915 420M330 422L331 423L330 422M331 423L332 424L331 423M583 423L584 424L583 423M333 424L334 425L333 424M334 425L335 426L334 425M580 425L581 426L580 425M335 426L336 427L335 426M579 426L580 427L579 426M338 428L339 429L338 428M576 428L577 429L576 428M575 429L576 430L575 429M341 430L342 431L341 430M573 430L574 431L573 430M342 431L343 432L342 431M572 431L573 432L572 431M344 432L345 433L344 432M570 432L571 433L570 432M345 433L345 435L347 435L345 433M569 433L568 435L570 435L569 433M0 435L0 450L15 450L15 435L0 435M566 435L567 436L566 435M350 436L351 437L350 436M564 436L565 437L564 436M353 438L354 439L353 438M561 438L562 439L561 438M355 439L356 440L355 439M559 439L560 440L559 439M557 440L558 441L557 440M556 441L557 442L556 441M360 442L360 450L375 450L375 449L366 447L360 442M554 442L551 446L549 447L540 449L540 450L555 450L554 442z"/>
<path style="fill:#ffffff; stroke:none;" d="M550 445L551 446L550 445M366 446L367 447L366 446M548 446L549 447L548 446z"/>
<path style="fill:#e7e7e7; stroke:none;" d="M375 450L375 465L390 465L391 455L375 450M538 450L536 453L531 455L528 456L525 455L525 465L540 465L540 450L538 450M915 450L915 465L920 465L920 450L915 450z"/>
<path style="fill:#ffffff; stroke:none;" d="M537 451L538 452L537 451M535 452L536 453L535 452M530 454L531 455L530 454M527 455L528 456L527 455z"/>
<path style="fill:#e7e7e7; stroke:none;" d="M392 456L393 457L392 456M522 456L523 457L522 456M395 457L396 458L395 457M519 457L520 458L519 457M398 458L399 459L398 458M516 458L517 459L516 458M401.667 459.333L402.333 459.667L401.667 459.333M512.667 459.333L513.333 459.667L512.667 459.333M509 460L505 463L495 463L495 465L510 465L509 460M405 461L405 465L421 464L421 463L414 464L410 463L405 461z"/>
<path style="fill:#ffffff; stroke:none;" d="M406 461L407 462L406 461M410 462L411 463L410 462M504 462L505 463L504 462M414 463L415 464L414 463z"/>
<path style="fill:#e7e7e7; stroke:none;" d="M0 465L0 480L15 480L15 465L0 465z"/>
<path style="fill:#ffffff; stroke:none;" d="M426 465L427 466L426 465M885 465L885 480L900 480L900 465L885 465M433 466L434 467L433 466M435 466L435 480L450 480L450 467L435 466z"/>
<path style="fill:#e7e7e7; stroke:none;" d="M437 466L437 467L441 467L437 466M473 466L474 467L473 466M475 466L475 467L478 467L475 466z"/>
<path style="fill:#ffffff; stroke:none;" d="M464 467L465 480L480 480L480 466L464 467M481.667 466.333L482.333 466.667L481.667 466.333M451 467L452 468L451 467M453 467L454 468L453 467M455 467L456 468L455 467M457 467L458 468L457 467M460 467L461 468L460 467M462 467L463 468L462 467z"/>
<path style="fill:#e7e7e7; stroke:none;" d="M915 480L915 495L920 495L920 480L915 480M0 495L0 501L15 501L15 495L0 495M30 495L30 501L45 501L45 495L30 495M60 495L60 501L75 501L75 495L60 495M90 495L90 501L105 501L105 495L90 495M120 495L120 501L135 501L135 495L120 495M150 495L150 501L165 501L165 495L150 495M180 495L180 501L195 501L195 495L180 495M210 495L210 501L225 501L225 495L210 495M240 495L240 501L255 501L255 495L240 495M270 495L270 501L285 501L285 495L270 495M300 495L300 501L315 501L315 495L300 495M330 495L330 501L345 501L345 495L330 495M360 495L360 501L375 501L375 495L360 495M390 495L390 501L405 501L405 495L390 495M420 495L420 501L435 501L435 495L420 495M450 495L450 501L465 501L465 495L450 495M480 495L480 501L495 501L495 495L480 495M510 495L510 501L525 501L525 495L510 495M540 495L540 501L555 501L555 495L540 495M570 495L570 501L585 501L585 495L570 495M600 495L600 501L615 501L615 495L600 495M630 495L630 501L645 501L645 495L630 495M660 495L660 501L675 501L675 495L660 495M690 495L690 501L705 501L705 495L690 495M720 495L720 501L735 501L735 495L720 495M750 495L750 501L765 501L765 495L750 495M780 495L780 501L795 501L795 495L780 495M810 495L810 501L825 501L825 495L810 495M840 495L840 501L855 501L855 495L840 495M870 495L870 501L885 501L885 495L870 495M900 495L900 501L915 501L915 495L900 495z"/>
</svg>
